<svg xmlns="http://www.w3.org/2000/svg" xmlns:xlink="http://www.w3.org/1999/xlink" viewBox="0 0 450 576.09"><defs><clipPath id="bef8a0f0-000d-4611-afd0-6d2500c093a4" transform="translate(-75)"><rect x="50" y="452.1" width="500" height="147.81" style="fill:none"/></clipPath></defs><title>logoAndText_white_transparent</title><g id="fb012dc0-0782-4c7c-9aa1-9f8b66d2d10a" data-name="椭圆 1 拷贝 2" style="isolation:isolate"><g id="bf921d72-a500-484d-9342-babf6e78e178" data-name="椭圆 5" style="opacity:0.51"><path d="M300,45V0C175.74,0,75,100.74,75,225S175.74,450,300,450V405a180,180,0,0,1,0-360Z" transform="translate(-75)" style="fill:#73f3da"/></g><g id="efef2f2e-c8a8-461e-ad9b-5c4262cf3b36" data-name="椭圆 4" style="opacity:0.8200000000000001"><path d="M300,81V44.25a180.75,180.75,0,0,0,0,361.5V369a144,144,0,0,1,0-288Z" transform="translate(-75)" style="fill:#73f3da"/></g><g id="e91fd949-a0cf-46ca-9308-6854f3771579" data-name="椭圆 3" style="opacity:0.96"><path d="M185.25,225A114.76,114.76,0,0,1,299.91,110.25v-30a144.84,144.84,0,0,0,0,289.68V339.75A114.76,114.76,0,0,1,185.25,225ZM299.91,110.25v229.5H300V110.25Z" transform="translate(-75)" style="fill:#73f3da"/></g><g id="ae5f7b7f-ce57-4678-a64e-4fd79ebe2684" data-name="椭圆 2"><path d="M300,133.5v-24a115.5,115.5,0,0,0,0,231v-24a91.5,91.5,0,0,1,0-183Z" transform="translate(-75)" style="fill:#73f3da"/></g><g id="b12ef074-25a1-42f5-bcc5-72380c84113d" data-name="椭圆 1"><path d="M300.31,179.31V132.42a92.27,92.27,0,0,0,0,184.54V270.07a45.38,45.38,0,0,1,0-90.76Z" transform="translate(-75)" style="fill:#b6f7ea"/></g><g id="a919ec44-7a28-485b-9243-f66c3291ae4b" data-name="椭圆 1 拷贝"><path d="M254.15,225.05a45.81,45.81,0,0,0,45.8,45.8v-91.6A45.8,45.8,0,0,0,254.15,225.05Z" transform="translate(-75)" style="fill:#d9f9f3"/></g><g id="b7248e3d-c387-49c7-93ad-91d57e5197a4" data-name="椭圆 5 拷贝" style="opacity:0.51"><path d="M300,0V45a180,180,0,0,1,0,360v45c124.26,0,225-100.74,225-225S424.26,0,300,0Z" transform="translate(-75)" style="fill:#2cc0c7"/></g><g id="a00dc76f-6b09-4c80-a5b4-643ab7f9a78a" data-name="椭圆 4 拷贝" style="opacity:0.8200000000000001"><path d="M300,44.25V81a144,144,0,0,1,0,288v36.75a180.75,180.75,0,0,0,0-361.5Z" transform="translate(-75)" style="fill:#2cc0c7"/></g><g id="ee7f97b5-f53f-4cd4-ad4a-128bda428734" data-name="椭圆 3 拷贝" style="opacity:0.96"><path d="M299.91,80.25V369.93a144.84,144.84,0,0,0,0-289.68Zm.09,259.5V110.25a114.75,114.75,0,0,1,0,229.5Z" transform="translate(-75)" style="fill:#2cc0c7"/></g><g id="ae2e77b6-7f7d-45ad-a675-a5f5d5f6bf84" data-name="椭圆 2 拷贝"><path d="M300,109.5v24a91.5,91.5,0,0,1,0,183v24a115.5,115.5,0,0,0,0-231Z" transform="translate(-75)" style="fill:#2cc0c7"/></g><g id="f70a2b3d-9013-48a2-982a-2c7bda20ad93" data-name="椭圆 1 拷贝 2"><path d="M300.31,132.42v46.89a45.38,45.38,0,0,1,0,90.76V317a92.27,92.27,0,0,0,0-184.54Z" transform="translate(-75)" style="fill:#93dfe2"/></g><g id="b5043d6a-7fc3-4b2e-875a-0483e3d55b89" data-name="椭圆 1 拷贝 2"><path d="M300,179.25v91.6a45.8,45.8,0,0,0,0-91.6Z" transform="translate(-75)" style="fill:#c7eeef"/></g><g style="clip-path:url(#bef8a0f0-000d-4611-afd0-6d2500c093a4)"><g style="clip-path:url(#bef8a0f0-000d-4611-afd0-6d2500c093a4)"><path d="M482.65,493.66c-.67,1.38-1.23,7.1-1.23,8.14h34v55.28H502.68V511.52H481.42v45.56H468.66v-45c-5.75,0-8.51-2.13-8.51-4.86V501.8h8.51v-3.65c1.15-18.87,21-24.39,34.6-21a1.38,1.38,0,0,1,1.24,1.56v4.86c-.85,6.12-15.46-3.07-21.85,10.09m-404-15h49.22v11.54H93.19v21.87h27.34v10.94H93.19v22.48h34.63v11.54H78.6Zm139.14,5.47V501.8h14.58v9.72H217.74V541.9c0,3.72,2.57,4.8,5.23,4.75a8.07,8.07,0,0,0,5.7-2.32c4.85,8.48,0,.07,4.86,8.5-2.88,3.82-9,4.86-14,4.86-13,0-15.19-10.79-15.19-17.62V511.52h-4.86c-1.91,0-3-.43-3-2.43v-5.47l9.11-1.82c1.36-9.77,2-17.62,4.86-17.62Zm60.14,17.62c-1.57,10.81,0,0-1.57,10.81a1.44,1.44,0,0,1-2.07,1.34c-7.43-2.37-18.28.39-18.23,12.15,0,5.11,0,14.08,0,31-4.25,0-8.51-.07-12.76-.07V501.19c3.71-.14,6.5,0,8.51,0,2.84,0,3.64,4.45,3.64,10.33,5.33-7.76,13.09-14.23,22.48-9.72m33.42-1.22c13.37,0,27.34,9.11,27.34,28.56,0,20.52-14,28.55-27.34,28.55-14,0-27.34-8.08-27.34-28.55,0-19.45,13.37-28.56,27.34-28.56M140,501.19h7.9c3.07,0,4.25,3.11,4.25,7.29,7.68-8,13.79-7.29,19.44-7.29,10.66,0,16.46,10.32,16.46,17.12,0,11.32-.05,26.32-.05,38.77H175.21V520c0-5.68-4.21-9.16-9.38-9.19s-13.1,2.81-13.1,9.8v36.45H140Zm221.86,74.6H349.08c0-24.54-.11-49.46-.11-74h8.5c3,0,3.65,4.44,3.65,7.29,3.88-3.56,8.12-7.9,18.23-7.9,10.71,0,20,7.08,20,27.95,0,10.87-4.59,28.55-23.09,28.55-6.67,0-12.24-1.93-14.58-5.89,0,7.5.1,16.48.1,24m40-74h12.76c2.39.06,4.47,6.76,16.4,37.67.25-.68,8-22.61,11.54-31,1.65-3.89,1.68-6.68,4.86-6.68,3.49,0,7.82-.08,10.94,0-30.33,70.5,0,0-30.38,70.47-1.66,2.52-3.39,3-4.25,3H414c5-10.93,5-10.9,10.33-21.87-10.22-23.27-10.3-23.7-22.48-51.64m-90.53,9.11c-8.36,0-14,4.8-14,18.23,0,13.14,5.61,18.22,14,18.22,9.11,0,13.37-4.86,13.37-18.22s-4.26-18.23-13.37-18.23m50.55,7.9v23.81c3.27,3.93,5.6,5.35,10.81,5.35,8,0,13.37-5.6,13.37-18.23,0-11-1.93-18.83-11.54-18.83-4.56,0-9.49,2.68-12.64,7.9" transform="translate(-75)" style="fill:#fff"/><path d="M482.65,493.66c-.67,1.38-1.23,7.1-1.23,8.14h34v55.28H502.68V511.52H481.42v45.56H468.66v-45c-5.75,0-8.51-2.13-8.51-4.86V501.8h8.51v-3.65c1.15-18.87,21-24.39,34.6-21a1.38,1.38,0,0,1,1.24,1.56v4.86C503.65,489.69,489,480.5,482.65,493.66Zm-404-15h49.22v11.54H93.19v21.87h27.34v10.94H93.19v22.48h34.63v11.54H78.6Zm139.14,5.47V501.8h14.58v9.72H217.74V541.9c0,3.72,2.57,4.8,5.23,4.75a8.07,8.07,0,0,0,5.7-2.32c4.85,8.48,0,.07,4.86,8.5-2.88,3.82-9,4.86-14,4.86-13,0-15.19-10.79-15.19-17.62V511.52h-4.86c-1.91,0-3-.43-3-2.43v-5.47l9.11-1.82c1.36-9.77,2-17.62,4.86-17.62Zm60.14,17.62c-1.57,10.81,0,0-1.57,10.81a1.44,1.44,0,0,1-2.07,1.34c-7.43-2.37-18.28.39-18.23,12.15,0,5.11,0,14.08,0,31-4.25,0-8.51-.07-12.76-.07V501.19c3.71-.14,6.5,0,8.51,0,2.84,0,3.64,4.45,3.64,10.33C260.73,503.76,268.49,497.29,277.88,501.8Zm33.42-1.22c13.37,0,27.34,9.11,27.34,28.56,0,20.52-14,28.55-27.34,28.55-14,0-27.34-8.08-27.34-28.55C284,509.69,297.33,500.58,311.3,500.58ZM140,501.19h7.9c3.07,0,4.25,3.11,4.25,7.29,7.68-8,13.79-7.29,19.44-7.29,10.66,0,16.46,10.32,16.46,17.12,0,11.32-.05,26.32-.05,38.77H175.21V520c0-5.68-4.21-9.16-9.38-9.19s-13.1,2.81-13.1,9.8v36.45H140Zm221.86,74.6H349.08c0-24.54-.11-49.46-.11-74h8.5c3,0,3.65,4.44,3.65,7.29,3.88-3.56,8.12-7.9,18.23-7.9,10.71,0,20,7.08,20,27.95,0,10.87-4.59,28.55-23.09,28.55-6.67,0-12.24-1.93-14.58-5.89C361.73,559.3,361.83,568.28,361.83,575.79Zm40-74h12.76c2.39.06,4.47,6.76,16.4,37.67.25-.68,8-22.61,11.54-31,1.65-3.89,1.68-6.68,4.86-6.68,3.49,0,7.82-.08,10.94,0-30.33,70.5,0,0-30.38,70.47-1.66,2.52-3.39,3-4.25,3H414c5-10.93,5-10.9,10.33-21.87C414.09,530.17,414,529.74,401.83,501.8Zm-90.53,9.11c-8.36,0-14,4.8-14,18.23,0,13.14,5.61,18.22,14,18.22,9.11,0,13.37-4.86,13.37-18.22S320.41,510.91,311.3,510.91Zm50.55,7.9v23.81c3.27,3.93,5.6,5.35,10.81,5.35,8,0,13.37-5.6,13.37-18.23,0-11-1.93-18.83-11.54-18.83C369.93,510.91,365,513.59,361.85,518.81Z" transform="translate(-75)" style="fill:none;stroke:#fff;stroke-miterlimit:10;stroke-width:0.6075607193601982px"/></g></g></g></svg>