<svg id="a6065c5d-a820-4e61-8efc-017beb1fbfdb" data-name="图层 1" xmlns="http://www.w3.org/2000/svg" xmlns:xlink="http://www.w3.org/1999/xlink" viewBox="0 0 742.91 200"><defs><clipPath id="ecdd02ba-396c-49c8-bc28-b0cebcb92720" transform="translate(-40.02 -21.64)"><rect x="40.02" y="21.64" width="200" height="200" style="fill:none"/></clipPath><clipPath id="a7978e89-f87c-4080-a538-84f3a1a46bc4" transform="translate(-40.02 -21.64)"><rect x="40.02" y="21.64" width="100" height="200" style="fill:none"/></clipPath><clipPath id="a6d7dcf9-233a-4bb3-a77e-426df2b5bc84" transform="translate(-40.02 -21.64)"><rect x="59.68" y="41.31" width="80.33" height="160.67" style="fill:none"/></clipPath><clipPath id="e14f8bbe-af35-4cc9-a397-f609c2956cb5" transform="translate(-40.02 -21.64)"><rect x="75.6" y="57.31" width="64.41" height="128.75" style="fill:none"/></clipPath><clipPath id="ab1bed03-b325-43bb-b225-8adcdcb97a06" transform="translate(-40.02 -21.64)"><rect x="88.68" y="70.31" width="51.33" height="102.67" style="fill:none"/></clipPath><clipPath id="fc7033f6-a2ce-4da7-bb6e-8c679d5b84fd" transform="translate(-40.02 -21.64)"><rect x="99.14" y="80.49" width="41.01" height="82.02" style="fill:none"/></clipPath><clipPath id="ad10ba96-d9ff-4378-8aca-3511a3f060d2" transform="translate(-40.02 -21.64)"><rect x="119.64" y="101.31" width="20.35" height="40.71" style="fill:none"/></clipPath><clipPath id="ed573b81-876b-48fb-8aeb-7774f867c14e" transform="translate(-40.02 -21.64)"><rect x="140.02" y="21.64" width="100" height="200" style="fill:none"/></clipPath><clipPath id="ed0e375f-d31b-4145-8cfd-90ce5a03c785" transform="translate(-40.02 -21.64)"><rect x="140.02" y="41.31" width="80.33" height="160.67" style="fill:none"/></clipPath><clipPath id="a4358f4b-e533-4a99-b4cb-ff39bfd431c7" transform="translate(-40.02 -21.64)"><rect x="139.98" y="57.31" width="64.37" height="128.75" style="fill:none"/></clipPath><clipPath id="b494fbbf-bb57-4cc6-bb65-303112f3e109" transform="translate(-40.02 -21.64)"><rect x="140.02" y="70.31" width="51.33" height="102.67" style="fill:none"/></clipPath><clipPath id="ef9814e0-c937-4918-9992-926558076a41" transform="translate(-40.02 -21.64)"><rect x="140.15" y="80.49" width="41.01" height="82.02" style="fill:none"/></clipPath><clipPath id="a90a9b00-e730-4ee5-862a-6f33b11efc1b" transform="translate(-40.02 -21.64)"><rect x="139.99" y="101.31" width="20.35" height="40.71" style="fill:none"/></clipPath></defs><title>logoAndText_Left_black_transparent</title><path id="a9cadbf5-3c30-4d72-b221-932a329087f9" data-name="3" d="M745.4,94c-.77,1.58-1.42,8.13-1.42,9.31h38.95v63.29H768.32V114.41H744v52.16h-14.6V115.11c-6.58,0-9.73-2.45-9.73-5.57v-6.26h9.73V99.11c1.32-21.59,24-27.91,39.61-24a1.57,1.57,0,0,1,1.42,1.78v5.56C769.43,89.43,752.71,78.91,745.4,94ZM282.93,76.86h56.33V90.07H299.62v25h31.29v12.51H299.62v25.73h39.64v13.22H282.93Zm159.25,6.26v20.16h16.69v11.13H442.18v34.77c0,4.26,2.95,5.5,6,5.45a9.22,9.22,0,0,0,6.52-2.67c5.55,9.72,0,.09,5.57,9.74-3.3,4.37-10.32,5.56-16,5.56-14.85,0-17.38-12.35-17.38-20.16V114.41h-5.57c-2.18,0-3.47-.49-3.47-2.78v-6.26c10.44-2.08,0,0,10.43-2.09,1.55-11.17,2.28-20.16,5.56-20.16ZM511,103.28c-1.8,12.38,0,0-1.8,12.39a1.65,1.65,0,0,1-2.37,1.52c-8.5-2.71-20.92.45-20.86,13.91,0,5.85,0,16.12,0,35.54-4.87,0-9.74-.07-14.61-.07v-64c4.25-.16,7.44,0,9.74,0,3.25,0,4.17,5.09,4.17,11.82C491.39,105.53,500.27,98.13,511,103.28Zm38.25-1.39c15.3,0,31.29,10.44,31.29,32.69,0,23.48-16,32.68-31.29,32.68-16,0-31.29-9.25-31.29-32.68C518,112.33,533.28,101.89,549.27,101.89Zm-196.11.7h9c3.52,0,4.87,3.56,4.87,8.34,8.79-9.14,15.78-8.34,22.26-8.34,12.2,0,18.83,11.81,18.83,19.6,0,13-.06,30.12-.06,44.38H393.5V124.15c0-6.51-4.82-10.49-10.73-10.53s-15,3.22-15,11.22v41.73H353.16Zm254,85.38h-14.6c0-28.08-.12-56.6-.12-84.69h9.73c3.42,0,4.17,5.09,4.17,8.35,4.45-4.07,9.3-9,20.87-9,12.26,0,22.94,8.1,22.94,32,0,12.44-5.24,32.68-26.42,32.68-7.64,0-14-2.21-16.69-6.74C607,169.1,607.11,179.39,607.11,188Zm45.78-84.69h14.6c2.74.08,5.12,7.75,18.78,43.12.28-.77,9.15-25.87,13.21-35.47,1.88-4.44,1.92-7.65,5.56-7.65,4,0,9-.09,12.52,0-34.72,80.71,0,0-34.77,80.67-1.9,2.88-3.89,3.48-4.87,3.48H666.79c5.75-12.51,5.74-12.48,11.83-25C666.92,135.76,666.83,135.27,652.89,103.28ZM549.27,113.72c-9.56,0-16,5.49-16,20.86,0,15,6.43,20.86,16,20.86,10.43,0,15.3-5.56,15.3-20.86S559.7,113.72,549.27,113.72Zm57.86,9V150c3.74,4.49,6.41,6.12,12.38,6.12,9.1,0,15.3-6.41,15.3-20.87,0-12.6-2.21-21.55-13.22-21.55C616.37,113.72,610.73,116.78,607.13,122.76Z" transform="translate(-40.02 -21.64)" style="fill:#231815;fill-rule:evenodd"/><g style="clip-path:url(#ecdd02ba-396c-49c8-bc28-b0cebcb92720)"><g style="clip-path:url(#ecdd02ba-396c-49c8-bc28-b0cebcb92720)"><g style="clip-path:url(#ecdd02ba-396c-49c8-bc28-b0cebcb92720)"><g style="opacity:0.5098109841346741;isolation:isolate"><g style="clip-path:url(#a7978e89-f87c-4080-a538-84f3a1a46bc4)"><g style="opacity:0.5099949836730957"><g style="clip-path:url(#a7978e89-f87c-4080-a538-84f3a1a46bc4)"><path d="M140,41.64v-20a100,100,0,0,0,0,200v-20a80,80,0,0,1,0-160" transform="translate(-40.02 -21.64)" style="fill:#88ccc3"/></g></g></g></g></g><g style="clip-path:url(#ecdd02ba-396c-49c8-bc28-b0cebcb92720)"><g style="opacity:0.8196110129356384;isolation:isolate"><g style="clip-path:url(#a6d7dcf9-233a-4bb3-a77e-426df2b5bc84)"><g style="opacity:0.8200070261955261"><g style="clip-path:url(#a6d7dcf9-233a-4bb3-a77e-426df2b5bc84)"><path d="M140,57.64V41.31A80.33,80.33,0,1,0,140,202V185.64a64,64,0,0,1,0-128" transform="translate(-40.02 -21.64)" style="fill:#88ccc3"/></g></g></g></g></g><g style="clip-path:url(#ecdd02ba-396c-49c8-bc28-b0cebcb92720)"><g style="opacity:0.9607849717140198;isolation:isolate"><g style="clip-path:url(#e14f8bbe-af35-4cc9-a397-f609c2956cb5)"><g style="opacity:0.9600070118904114"><g style="clip-path:url(#e14f8bbe-af35-4cc9-a397-f609c2956cb5)"><path d="M89,121.64a51,51,0,0,1,51-51V57.31a64.37,64.37,0,1,0,0,128.74V172.64a51,51,0,0,1-51-51m51-51v102h0v-102h0" transform="translate(-40.02 -21.64)" style="fill:#88ccc3"/></g></g></g></g></g><g style="clip-path:url(#ecdd02ba-396c-49c8-bc28-b0cebcb92720)"><g style="isolation:isolate"><g style="clip-path:url(#ab1bed03-b325-43bb-b225-8adcdcb97a06)"><path d="M140,81V70.31A51.33,51.33,0,1,0,140,173V162.31A40.67,40.67,0,0,1,140,81" transform="translate(-40.02 -21.64)" style="fill:#88ccc3"/></g></g></g><g style="clip-path:url(#ecdd02ba-396c-49c8-bc28-b0cebcb92720)"><g style="isolation:isolate"><g style="clip-path:url(#fc7033f6-a2ce-4da7-bb6e-8c679d5b84fd)"><path d="M140.15,101.33V80.49a41,41,0,0,0,0,82V141.67a20.17,20.17,0,0,1,0-40.34" transform="translate(-40.02 -21.64)" style="fill:#bbe1dc"/></g></g></g><g style="clip-path:url(#ecdd02ba-396c-49c8-bc28-b0cebcb92720)"><g style="isolation:isolate"><g style="clip-path:url(#ad10ba96-d9ff-4378-8aca-3511a3f060d2)"><path d="M119.64,121.66A20.36,20.36,0,0,0,140,142V101.31a20.35,20.35,0,0,0-20.36,20.35" transform="translate(-40.02 -21.64)" style="fill:#dbefed"/></g></g></g><g style="clip-path:url(#ecdd02ba-396c-49c8-bc28-b0cebcb92720)"><g style="opacity:0.5098109841346741;isolation:isolate"><g style="clip-path:url(#ed573b81-876b-48fb-8aeb-7774f867c14e)"><g style="opacity:0.5099949836730957"><g style="clip-path:url(#ed573b81-876b-48fb-8aeb-7774f867c14e)"><path d="M140,21.64v20a80,80,0,0,1,0,160v20a100,100,0,0,0,0-200" transform="translate(-40.02 -21.64)" style="fill:#31b8be"/></g></g></g></g></g><g style="clip-path:url(#ecdd02ba-396c-49c8-bc28-b0cebcb92720)"><g style="opacity:0.8196110129356384;isolation:isolate"><g style="clip-path:url(#ed0e375f-d31b-4145-8cfd-90ce5a03c785)"><g style="opacity:0.8200070261955261"><g style="clip-path:url(#ed0e375f-d31b-4145-8cfd-90ce5a03c785)"><path d="M140,41.31V57.64a64,64,0,1,1,0,128V202a80.33,80.33,0,0,0,0-160.66" transform="translate(-40.02 -21.64)" style="fill:#31b8be"/></g></g></g></g></g><g style="clip-path:url(#ecdd02ba-396c-49c8-bc28-b0cebcb92720)"><g style="opacity:0.9607849717140198;isolation:isolate"><g style="clip-path:url(#a4358f4b-e533-4a99-b4cb-ff39bfd431c7)"><g style="opacity:0.9600070118904114"><g style="clip-path:url(#a4358f4b-e533-4a99-b4cb-ff39bfd431c7)"><path d="M140,57.31V186.05a64.37,64.37,0,0,0,0-128.74m0,115.33v-102a51,51,0,1,1,0,102" transform="translate(-40.02 -21.64)" style="fill:#31b8be"/></g></g></g></g></g><g style="clip-path:url(#ecdd02ba-396c-49c8-bc28-b0cebcb92720)"><g style="isolation:isolate"><g style="clip-path:url(#b494fbbf-bb57-4cc6-bb65-303112f3e109)"><path d="M140,70.31V81a40.67,40.67,0,0,1,0,81.34V173a51.33,51.33,0,0,0,0-102.66" transform="translate(-40.02 -21.64)" style="fill:#31b8be"/></g></g></g><g style="clip-path:url(#ecdd02ba-396c-49c8-bc28-b0cebcb92720)"><g style="isolation:isolate"><g style="clip-path:url(#ef9814e0-c937-4918-9992-926558076a41)"><path d="M140.15,80.49v20.84a20.17,20.17,0,0,1,0,40.34v20.84a41,41,0,0,0,0-82" transform="translate(-40.02 -21.64)" style="fill:#97d3d8"/></g></g></g><g style="clip-path:url(#ecdd02ba-396c-49c8-bc28-b0cebcb92720)"><g style="isolation:isolate"><g style="clip-path:url(#a90a9b00-e730-4ee5-862a-6f33b11efc1b)"><path d="M140,101.31V142a20.36,20.36,0,1,0,0-40.71" transform="translate(-40.02 -21.64)" style="fill:#c9e7ea"/></g></g></g></g></g></svg>