<svg id="a0832a8d-6211-4da5-82c8-dc48207992a1" data-name="图层 1" xmlns="http://www.w3.org/2000/svg" xmlns:xlink="http://www.w3.org/1999/xlink" viewBox="0 0 743.41 200"><defs><clipPath id="e0d61e73-cbbe-4cfd-b637-e12cdf806f7e" transform="translate(-40.02 -21.64)"><rect x="40.02" y="21.64" width="200" height="200" style="fill:none"/></clipPath><clipPath id="b2c4269e-d6e1-48e2-b072-431701f00d33" transform="translate(-40.02 -21.64)"><rect x="40.02" y="21.64" width="100" height="200" style="fill:none"/></clipPath><clipPath id="b0814d0e-c89a-434d-8b0a-fad1fb4e20d2" transform="translate(-40.02 -21.64)"><rect x="59.68" y="41.31" width="80.33" height="160.67" style="fill:none"/></clipPath><clipPath id="ae70de07-d919-4b1b-895a-248816d6b96e" transform="translate(-40.02 -21.64)"><rect x="75.6" y="57.31" width="64.41" height="128.75" style="fill:none"/></clipPath><clipPath id="a6303e7a-98f9-4b06-b916-537248768a65" transform="translate(-40.02 -21.64)"><rect x="88.68" y="70.31" width="51.33" height="102.67" style="fill:none"/></clipPath><clipPath id="b5f99d56-19b9-407e-b81b-cdc0bcef04da" transform="translate(-40.02 -21.64)"><rect x="99.14" y="80.49" width="41.01" height="82.02" style="fill:none"/></clipPath><clipPath id="accd7984-1911-463a-987b-08092fdacaf1" transform="translate(-40.02 -21.64)"><rect x="119.64" y="101.31" width="20.35" height="40.71" style="fill:none"/></clipPath><clipPath id="f9984b3c-11a2-49a3-90ea-ca65e9f5903b" transform="translate(-40.02 -21.64)"><rect x="140.02" y="21.64" width="100" height="200" style="fill:none"/></clipPath><clipPath id="e9da5fee-aa33-4971-b3d6-ecf47633f314" transform="translate(-40.02 -21.64)"><rect x="140.02" y="41.31" width="80.33" height="160.67" style="fill:none"/></clipPath><clipPath id="ef4060a7-2523-4749-8b5e-cca1fba2151a" transform="translate(-40.02 -21.64)"><rect x="139.98" y="57.31" width="64.37" height="128.75" style="fill:none"/></clipPath><clipPath id="f58a988b-5feb-4b41-be1e-d020209c4201" transform="translate(-40.02 -21.64)"><rect x="140.02" y="70.31" width="51.33" height="102.67" style="fill:none"/></clipPath><clipPath id="b218e17c-5127-42e6-ad06-b211da44a6c7" transform="translate(-40.02 -21.64)"><rect x="140.15" y="80.49" width="41.01" height="82.02" style="fill:none"/></clipPath><clipPath id="bff24341-ca56-41da-b0ba-b4b3394c07b7" transform="translate(-40.02 -21.64)"><rect x="139.99" y="101.31" width="20.35" height="40.71" style="fill:none"/></clipPath></defs><title>logoAndText_Left_white_transparent</title><path id="bfd74d5d-a52a-40cd-85e4-a52e4a28d23b" data-name="3" d="M745.4,94c-.77,1.58-1.42,8.13-1.42,9.31h38.95v63.29H768.32V114.41H744v52.16h-14.6V115.11c-6.58,0-9.73-2.45-9.73-5.57v-6.26h9.73V99.11c1.32-21.59,24-27.91,39.61-24a1.57,1.57,0,0,1,1.42,1.78v5.56C769.43,89.43,752.71,78.91,745.4,94ZM282.93,76.86h56.33V90.07H299.62v25h31.29v12.51H299.62v25.73h39.64v13.22H282.93Zm159.25,6.26v20.16h16.69v11.13H442.18v34.77c0,4.26,2.95,5.5,6,5.45a9.22,9.22,0,0,0,6.52-2.67c5.55,9.72,0,.09,5.57,9.74-3.3,4.37-10.32,5.56-16,5.56-14.85,0-17.38-12.35-17.38-20.16V114.41h-5.57c-2.18,0-3.47-.49-3.47-2.78v-6.26c10.44-2.08,0,0,10.43-2.09,1.55-11.17,2.28-20.16,5.56-20.16ZM511,103.28c-1.8,12.38,0,0-1.8,12.39a1.65,1.65,0,0,1-2.37,1.52c-8.5-2.71-20.92.45-20.86,13.91,0,5.85,0,16.12,0,35.54-4.87,0-9.74-.07-14.61-.07v-64c4.25-.16,7.44,0,9.74,0,3.25,0,4.17,5.09,4.17,11.82C491.39,105.53,500.27,98.13,511,103.28Zm38.25-1.39c15.3,0,31.29,10.44,31.29,32.69,0,23.48-16,32.68-31.29,32.68-16,0-31.29-9.25-31.29-32.68C518,112.33,533.28,101.89,549.27,101.89Zm-196.11.7h9c3.52,0,4.87,3.56,4.87,8.34,8.79-9.14,15.78-8.34,22.26-8.34,12.2,0,18.83,11.81,18.83,19.6,0,13-.06,30.12-.06,44.38H393.5V124.15c0-6.51-4.82-10.49-10.73-10.53s-15,3.22-15,11.22v41.73H353.16Zm254,85.38h-14.6c0-28.08-.12-56.6-.12-84.69h9.73c3.42,0,4.17,5.09,4.17,8.35,4.45-4.07,9.3-9,20.87-9,12.26,0,22.94,8.1,22.94,32,0,12.44-5.24,32.68-26.42,32.68-7.64,0-14-2.21-16.69-6.74C607,169.1,607.11,179.39,607.11,188Zm45.78-84.69h14.6c2.74.08,5.12,7.75,18.78,43.12.28-.77,9.15-25.87,13.21-35.47,1.88-4.44,1.92-7.65,5.56-7.65,4,0,9-.09,12.52,0-34.72,80.71,0,0-34.77,80.67-1.9,2.88-3.89,3.48-4.87,3.48H666.79c5.75-12.51,5.74-12.48,11.83-25C666.92,135.76,666.83,135.27,652.89,103.28ZM549.27,113.72c-9.56,0-16,5.49-16,20.86,0,15,6.43,20.86,16,20.86,10.43,0,15.3-5.56,15.3-20.86S559.7,113.72,549.27,113.72Zm57.86,9V150c3.74,4.49,6.41,6.12,12.38,6.12,9.1,0,15.3-6.41,15.3-20.87,0-12.6-2.21-21.55-13.22-21.55C616.37,113.72,610.73,116.78,607.13,122.76Z" transform="translate(-40.02 -21.64)" style="fill:#fff;stroke:#fff;stroke-miterlimit:10"/><g style="clip-path:url(#e0d61e73-cbbe-4cfd-b637-e12cdf806f7e)"><g style="clip-path:url(#e0d61e73-cbbe-4cfd-b637-e12cdf806f7e)"><g style="clip-path:url(#e0d61e73-cbbe-4cfd-b637-e12cdf806f7e)"><g style="opacity:0.5098109841346741;isolation:isolate"><g style="clip-path:url(#b2c4269e-d6e1-48e2-b072-431701f00d33)"><g style="opacity:0.5099949836730957"><g style="clip-path:url(#b2c4269e-d6e1-48e2-b072-431701f00d33)"><path d="M140,41.64v-20a100,100,0,0,0,0,200v-20a80,80,0,0,1,0-160" transform="translate(-40.02 -21.64)" style="fill:#88ccc3"/></g></g></g></g></g><g style="clip-path:url(#e0d61e73-cbbe-4cfd-b637-e12cdf806f7e)"><g style="opacity:0.8196110129356384;isolation:isolate"><g style="clip-path:url(#b0814d0e-c89a-434d-8b0a-fad1fb4e20d2)"><g style="opacity:0.8200070261955261"><g style="clip-path:url(#b0814d0e-c89a-434d-8b0a-fad1fb4e20d2)"><path d="M140,57.64V41.31A80.33,80.33,0,1,0,140,202V185.64a64,64,0,0,1,0-128" transform="translate(-40.02 -21.64)" style="fill:#88ccc3"/></g></g></g></g></g><g style="clip-path:url(#e0d61e73-cbbe-4cfd-b637-e12cdf806f7e)"><g style="opacity:0.9607849717140198;isolation:isolate"><g style="clip-path:url(#ae70de07-d919-4b1b-895a-248816d6b96e)"><g style="opacity:0.9600070118904114"><g style="clip-path:url(#ae70de07-d919-4b1b-895a-248816d6b96e)"><path d="M89,121.64a51,51,0,0,1,51-51V57.31a64.37,64.37,0,1,0,0,128.74V172.64a51,51,0,0,1-51-51m51-51v102h0v-102h0" transform="translate(-40.02 -21.64)" style="fill:#88ccc3"/></g></g></g></g></g><g style="clip-path:url(#e0d61e73-cbbe-4cfd-b637-e12cdf806f7e)"><g style="isolation:isolate"><g style="clip-path:url(#a6303e7a-98f9-4b06-b916-537248768a65)"><path d="M140,81V70.31A51.33,51.33,0,1,0,140,173V162.31A40.67,40.67,0,0,1,140,81" transform="translate(-40.02 -21.64)" style="fill:#88ccc3"/></g></g></g><g style="clip-path:url(#e0d61e73-cbbe-4cfd-b637-e12cdf806f7e)"><g style="isolation:isolate"><g style="clip-path:url(#b5f99d56-19b9-407e-b81b-cdc0bcef04da)"><path d="M140.15,101.33V80.49a41,41,0,0,0,0,82V141.67a20.17,20.17,0,0,1,0-40.34" transform="translate(-40.02 -21.64)" style="fill:#bbe1dc"/></g></g></g><g style="clip-path:url(#e0d61e73-cbbe-4cfd-b637-e12cdf806f7e)"><g style="isolation:isolate"><g style="clip-path:url(#accd7984-1911-463a-987b-08092fdacaf1)"><path d="M119.64,121.66A20.36,20.36,0,0,0,140,142V101.31a20.35,20.35,0,0,0-20.36,20.35" transform="translate(-40.02 -21.64)" style="fill:#dbefed"/></g></g></g><g style="clip-path:url(#e0d61e73-cbbe-4cfd-b637-e12cdf806f7e)"><g style="opacity:0.5098109841346741;isolation:isolate"><g style="clip-path:url(#f9984b3c-11a2-49a3-90ea-ca65e9f5903b)"><g style="opacity:0.5099949836730957"><g style="clip-path:url(#f9984b3c-11a2-49a3-90ea-ca65e9f5903b)"><path d="M140,21.64v20a80,80,0,0,1,0,160v20a100,100,0,0,0,0-200" transform="translate(-40.02 -21.64)" style="fill:#31b8be"/></g></g></g></g></g><g style="clip-path:url(#e0d61e73-cbbe-4cfd-b637-e12cdf806f7e)"><g style="opacity:0.8196110129356384;isolation:isolate"><g style="clip-path:url(#e9da5fee-aa33-4971-b3d6-ecf47633f314)"><g style="opacity:0.8200070261955261"><g style="clip-path:url(#e9da5fee-aa33-4971-b3d6-ecf47633f314)"><path d="M140,41.31V57.64a64,64,0,1,1,0,128V202a80.33,80.33,0,0,0,0-160.66" transform="translate(-40.02 -21.64)" style="fill:#31b8be"/></g></g></g></g></g><g style="clip-path:url(#e0d61e73-cbbe-4cfd-b637-e12cdf806f7e)"><g style="opacity:0.9607849717140198;isolation:isolate"><g style="clip-path:url(#ef4060a7-2523-4749-8b5e-cca1fba2151a)"><g style="opacity:0.9600070118904114"><g style="clip-path:url(#ef4060a7-2523-4749-8b5e-cca1fba2151a)"><path d="M140,57.31V186.05a64.37,64.37,0,0,0,0-128.74m0,115.33v-102a51,51,0,1,1,0,102" transform="translate(-40.02 -21.64)" style="fill:#31b8be"/></g></g></g></g></g><g style="clip-path:url(#e0d61e73-cbbe-4cfd-b637-e12cdf806f7e)"><g style="isolation:isolate"><g style="clip-path:url(#f58a988b-5feb-4b41-be1e-d020209c4201)"><path d="M140,70.31V81a40.67,40.67,0,0,1,0,81.34V173a51.33,51.33,0,0,0,0-102.66" transform="translate(-40.02 -21.64)" style="fill:#31b8be"/></g></g></g><g style="clip-path:url(#e0d61e73-cbbe-4cfd-b637-e12cdf806f7e)"><g style="isolation:isolate"><g style="clip-path:url(#b218e17c-5127-42e6-ad06-b211da44a6c7)"><path d="M140.15,80.49v20.84a20.17,20.17,0,0,1,0,40.34v20.84a41,41,0,0,0,0-82" transform="translate(-40.02 -21.64)" style="fill:#97d3d8"/></g></g></g><g style="clip-path:url(#e0d61e73-cbbe-4cfd-b637-e12cdf806f7e)"><g style="isolation:isolate"><g style="clip-path:url(#bff24341-ca56-41da-b0ba-b4b3394c07b7)"><path d="M140,101.31V142a20.36,20.36,0,1,0,0-40.71" transform="translate(-40.02 -21.64)" style="fill:#c9e7ea"/></g></g></g></g></g></svg>