<svg width="120px" height="120px" style="padding: 50px" viewBox="0 0 600 600" xmlns="http://www.w3.org/2000/svg">
    <style>
        @keyframes main {
            from {
                transform: rotate(90deg);
            }
            to {
                transform: rotate(0);
            }
        }
        @keyframes one {
            from {
                opacity: 0;
            }
            to {
                opacity: 1;
            }
        }
        @keyframes two {
            from {
                opacity: 0;
            }
            to {
                opacity: 1;
                transform: rotate(360deg);
            }
        }
        @keyframes two1 {
            from {
                opacity: 0;
            }
            to {
                opacity:0.51;
                transform: rotate(360deg);
            }
        }
        @keyframes two2 {
            from {
                opacity: 0;
            }
            to {
                opacity:0.8200000000000001;
                transform: rotate(360deg);
            }
        }
        @keyframes three {
            from {
                opacity: 0;
            }
            to {
                opacity: 1;
                transform: rotate(0);
            }
        }
        @keyframes three1 {
            from {
                opacity: 0;
            }
            to {
                opacity:0.51;
                transform: rotate(0);
            }
        }
        @keyframes three2 {
            from {
                opacity: 0;
            }
            to {
                opacity:0.8200000000000001;
                transform: rotate(0);
            }
        }
        @keyframes three3 {
            from {
                opacity: 0;
            }
            to {
                opacity:0.96;
                transform: rotate(0);
            }
        }
        @keyframes four {
            0% {
                transform: scale(1)
            }
            25% {
                transform: scale(0.8)
            }
            50% {
                transform: scale(1.2)
            }
            100% {
                transform: scale(1)
            }
        }
    </style>
    <g style="transform-origin: center;animation: four 0.25s 0.95s forwards ease-in-out;">
        <g style="opacity:0.509803921568627;isolation:isolate">
            <g style="transform-origin: center;transform: rotate(42deg);opacity:0;animation: three1 0.25s 0.70s forwards cubic-bezier(.22,.58,.12,.98);">
                <path d="M300,60V0C134.31,0,0,134.31,0,300S134.31,600,300,600V540C167.45,540,60,432.55,60,300S167.45,60,300,60Z" style="fill:#73f6dd"/>
            </g>
        </g>
        <g style="opacity:0.819607843137255;isolation:isolate">
            <g style="transform-origin: center;transform: rotate(-42deg);opacity:0;animation: three2 0.55s 0.50s forwards cubic-bezier(.22,.58,.12,.98);">
                <path d="M300,108V59C166.9,59,59,166.9,59,300S166.9,541,300,541V492c-106,0-192-86-192-192S194,108,300,108Z" style="fill:#73f6dd"/>
            </g>
        </g>
        <g style="opacity:0.96078431372549;isolation:isolate">
            <g style="transform-origin: center;transform: rotate(22deg);opacity:0;animation: three3 0.55s 0.45s forwards cubic-bezier(.22,.58,.12,.98);">
                <path d="M147,300A153,153,0,0,1,299.88,147V107c-106.66,0-193.12,86.46-193.12,193.12s86.46,193.12,193.12,193.12V453A153,153,0,0,1,147,300ZM299.88,147V453H300V147Z" style="fill:#73f6dd"/>
            </g>
        </g>
        <g style="isolation:isolate">
            <g style="opacity:0;animation: one 0.30s 0.35s forwards cubic-bezier(.22,.58,.12,.98);">
                <path d="M300,178V146a154,154,0,0,0,0,308V422a122,122,0,0,1,0-244Z" style="fill:#73f6dd"/>
            </g>
        </g>
        <g style="isolation:isolate">
            <g style="opacity:0;animation: one 0.25s 0.30s forwards cubic-bezier(.22,.58,.12,.98);">
                <path d="M300.41,239.08V176.56a123,123,0,0,0,0,246.06V360.09a60.51,60.51,0,0,1,0-121Z" style="fill:#b9faed"/>
            </g>
        </g>
        <g style="isolation:isolate">
            <g style="opacity: 0;animation: one 0.25s 0.25s forwards cubic-bezier(.22,.58,.12,.98);">
                <path d="M238.87,300.06a61.07,61.07,0,0,0,61.07,61.07V239A61.07,61.07,0,0,0,238.87,300.06Z" style="fill:#dcfcf6"/>
            </g>
        </g>
        <g style="opacity:0.509803921568627;isolation:isolate">
            <g style="transform-origin: center;opacity:0;transform: rotate(138deg);animation: two1 0.25s 0.70s forwards cubic-bezier(.22,.58,.12,.98)">
                <path d="M300,0V60c132.55,0,240,107.45,240,240S432.55,540,300,540v60c165.69,0,300-134.31,300-300S465.69,0,300,0Z" style="fill:#2cc3ca"/>
            </g>
        </g>
        <g style="opacity:0.819607843137255;isolation:isolate">
            <g style="opacity:0;transform-origin: center;transform: rotate(270deg);animation: two2 0.25s 0.65s forwards cubic-bezier(.22,.58,.12,.98);">
                <path d="M300,59v49c106,0,192,86,192,192S406,492,300,492v49c133.1,0,241-107.9,241-241S433.1,59,300,59Z" style="fill:#2cc3ca"/>
            </g>
        </g>
        <g style="opacity:0.96078431372549;isolation:isolate">
            <g style="transform-origin: center;transform: rotate(270deg);opacity:0;animation: three3 0.55s 0.45s forwards cubic-bezier(.22,.58,.12,.98);">
                <path d="M299.88,107V493.24C406.54,493.24,493,406.78,493,300.12S406.54,107,299.88,107ZM300,453V147a153,153,0,0,1,0,306Z" style="fill:#2cc3ca"/>
            </g>
        </g>
        <g style="isolation:isolate">
            <g style="transform-origin: center;transform: rotate(180deg);opacity:0;animation: two 0.35s 0.40s forwards cubic-bezier(.22,.58,.12,.98);">
                <path d="M300,146v32a122,122,0,0,1,0,244v32a154,154,0,0,0,0-308Z" style="fill:#2cc3ca"/>
            </g>
        </g>
        <g style="isolation:isolate">
            <g style="opacity:0;animation: one 0.25s 0.30s forwards cubic-bezier(.22,.58,.12,.98);">
                <path d="M300.41,176.56v62.52a60.51,60.51,0,1,1,0,121v62.53a123,123,0,0,0,0-246.06Z" style="fill:#96e2e5"/>
            </g>
        </g>
        <g style="isolation:isolate">
            <g style="opacity: 0;animation: one 0.25s 0.25s forwards cubic-bezier(.22,.58,.12,.98);">
                <path d="M299.94,239V361.13a61.07,61.07,0,0,0,0-122.13Z" style="fill:#caf1f2"/>
            </g>
        </g>
    </g>
</svg>