<svg xmlns="http://www.w3.org/2000/svg" viewBox="0 0 600 600"><g id="b2da186e-2b4e-4e6d-a08d-a0fce3c0cdd6" data-name="1"><g id="b751f588-40ae-4d95-9a89-c8363b4045f2" data-name="3" style="opacity:0.509803921568627;isolation:isolate"><g id="aa4e5fc0-16ee-4c83-88fc-5855daa1e1d0" data-name="椭圆 5" style="opacity:0.51"><path d="M300,60V0C134.31,0,0,134.31,0,300S134.31,600,300,600V540C167.45,540,60,432.55,60,300S167.45,60,300,60Z" style="fill:#73f6dd"/></g></g><g id="ffb45f91-4e3f-48b0-b7b3-40237fe13532" data-name="5" style="opacity:0.819607843137255;isolation:isolate"><g id="ffbbc392-d476-46bd-9ff8-95774ff17438" data-name="椭圆 4" style="opacity:0.8200000000000001"><path d="M300,108V59C166.9,59,59,166.9,59,300S166.9,541,300,541V492c-106,0-192-86-192-192S194,108,300,108Z" style="fill:#73f6dd"/></g></g><g id="a5509bbd-3479-4bab-85a0-361d3f2c5129" data-name="6" style="opacity:0.96078431372549;isolation:isolate"><g id="e62e1961-1bc0-4e5b-ab04-f6c98503219c" data-name="椭圆 3" style="opacity:0.96"><path d="M147,300A153,153,0,0,1,299.88,147V107c-106.66,0-193.12,86.46-193.12,193.12s86.46,193.12,193.12,193.12V453A153,153,0,0,1,147,300ZM299.88,147V453H300V147Z" style="fill:#73f6dd"/></g></g><g id="f92341a9-c9dc-43d7-b8e1-22254ba8acec" data-name="7" style="isolation:isolate"><g id="e7a3d7d7-e26a-420b-bb0f-3d33c54f50da" data-name="8"><path d="M300,178V146a154,154,0,0,0,0,308V422a122,122,0,0,1,0-244Z" style="fill:#73f6dd"/></g></g><g id="ae6800ae-6b65-4907-b554-5fa7452d111e" data-name="9" style="isolation:isolate"><g id="fede1f58-5e65-48a5-943d-cb5a41007eea" data-name="10"><path d="M300.41,239.08V176.56a123,123,0,0,0,0,246.06V360.09a60.51,60.51,0,0,1,0-121Z" style="fill:#b9faed"/></g></g><g id="b044107f-9ef6-4ec2-820e-6af4646950a7" data-name="11" style="isolation:isolate"><g id="ad72e2c9-5c6a-4a6c-8a3f-32b512f2a5bb" data-name="12"><path d="M238.87,300.06a61.07,61.07,0,0,0,61.07,61.07V239A61.07,61.07,0,0,0,238.87,300.06Z" style="fill:#dcfcf6"/></g></g><g id="e2e298ec-06bc-4d4d-bb5f-06d7dd94e9f1" data-name="13" style="opacity:0.509803921568627;isolation:isolate"><g id="be22e758-18ec-4272-9114-ad48de2f6be3" data-name="14" style="opacity:0.51"><path d="M300,0V60c132.55,0,240,107.45,240,240S432.55,540,300,540v60c165.69,0,300-134.31,300-300S465.69,0,300,0Z" style="fill:#2cc3ca"/></g></g><g id="b553f108-a4d0-44d7-b6c1-9040acdccba3" data-name="15" style="opacity:0.819607843137255;isolation:isolate"><g id="fc326db3-c426-417f-877d-56c95a330653" data-name="16" style="opacity:0.8200000000000001"><path d="M300,59v49c106,0,192,86,192,192S406,492,300,492v49c133.1,0,241-107.9,241-241S433.1,59,300,59Z" style="fill:#2cc3ca"/></g></g><g id="ee4a3048-faff-49bd-a3eb-0e129ca9982f" data-name="17" style="opacity:0.96078431372549;isolation:isolate"><g id="af9b94e7-6f61-44ae-b67b-de805af25bc7" data-name="18" style="opacity:0.96"><path d="M299.88,107V493.24C406.54,493.24,493,406.78,493,300.12S406.54,107,299.88,107ZM300,453V147a153,153,0,0,1,0,306Z" style="fill:#2cc3ca"/></g></g><g id="a3375b15-b49e-4040-8885-6fb1cc174d74" data-name="19" style="isolation:isolate"><g id="fa32c66c-df11-4f6b-adb8-f697e613c4a1" data-name="20"><path d="M300,146v32a122,122,0,0,1,0,244v32a154,154,0,0,0,0-308Z" style="fill:#2cc3ca"/></g></g><g id="bbf26b55-b5ce-4a78-8de1-952ad9d1cdde" data-name="21" style="isolation:isolate"><g id="addd2bf4-9659-49f2-956a-2add6373123b" data-name="22"><path d="M300.41,176.56v62.52a60.51,60.51,0,1,1,0,121v62.53a123,123,0,0,0,0-246.06Z" style="fill:#96e2e5"/></g></g><g id="f60b680c-a1bf-4c70-b1fd-709b6821f787" data-name="23" style="isolation:isolate"><g id="a48fb8c1-f18f-4974-9409-3c2296494a84" data-name="24"><path d="M299.94,239V361.13a61.07,61.07,0,0,0,0-122.13Z" style="fill:#caf1f2"/></g></g></g></svg>