<svg xmlns="http://www.w3.org/2000/svg" xmlns:xlink="http://www.w3.org/1999/xlink" viewBox="0 0 450 575.79"><defs><clipPath id="a9e5df51-d283-43aa-8665-695e37225ea5" transform="translate(-75)"><rect x="50" y="452.1" width="500" height="147.81" style="fill:none"/></clipPath></defs><title>logoAndText_transparent</title><g id="e349c8e5-3df0-4560-b8e9-b70857fb832d" data-name="椭圆 1 拷贝 2" style="isolation:isolate"><g style="clip-path:url(#a9e5df51-d283-43aa-8665-695e37225ea5)"><g style="clip-path:url(#a9e5df51-d283-43aa-8665-695e37225ea5)"><path d="M482.65,493.66c-.67,1.38-1.23,7.1-1.23,8.14h34v55.28H502.68V511.52H481.42v45.56H468.66v-45c-5.75,0-8.51-2.13-8.51-4.86V501.8h8.51v-3.65c1.15-18.87,21-24.39,34.6-21a1.38,1.38,0,0,1,1.24,1.56v4.86c-.85,6.12-15.46-3.07-21.85,10.09m-404-15h49.22v11.54H93.19v21.87h27.34v10.94H93.19v22.48h34.63v11.54H78.6Zm139.14,5.47V501.8h14.58v9.72H217.74V541.9c0,3.72,2.57,4.8,5.23,4.75a8.07,8.07,0,0,0,5.7-2.32c4.85,8.48,0,.07,4.86,8.5-2.88,3.82-9,4.86-14,4.86-13,0-15.19-10.79-15.19-17.62V511.52h-4.86c-1.91,0-3-.43-3-2.43v-5.47l9.11-1.82c1.36-9.77,2-17.62,4.86-17.62Zm60.14,17.62c-1.57,10.81,0,0-1.57,10.81a1.44,1.44,0,0,1-2.07,1.34c-7.42-2.37-18.28.39-18.23,12.15,0,5.11,0,14.08,0,31-4.25,0-8.51-.07-12.76-.07V501.19c3.71-.14,6.5,0,8.51,0,2.84,0,3.64,4.45,3.64,10.33,5.33-7.76,13.09-14.23,22.48-9.72m33.42-1.22c13.37,0,27.34,9.11,27.34,28.56,0,20.52-14,28.55-27.34,28.55-14,0-27.34-8.08-27.34-28.55,0-19.45,13.37-28.56,27.34-28.56M140,501.19h7.9c3.07,0,4.25,3.11,4.25,7.29,7.68-8,13.79-7.29,19.44-7.29,10.66,0,16.46,10.32,16.46,17.12,0,11.32-.06,26.32-.06,38.77H175.21V520c0-5.68-4.21-9.16-9.38-9.19s-13.1,2.81-13.1,9.8v36.45H140Zm221.86,74.6H349.08c0-24.54-.11-49.46-.11-74h8.5c3,0,3.65,4.44,3.65,7.29,3.88-3.56,8.12-7.9,18.23-7.9,10.71,0,20,7.08,20,27.95,0,10.87-4.59,28.55-23.09,28.55-6.67,0-12.24-1.93-14.58-5.89,0,7.5.1,16.48.1,24m40-74h12.76c2.39.06,4.47,6.76,16.4,37.67.25-.67,8-22.61,11.54-31,1.65-3.89,1.68-6.68,4.86-6.68,3.49,0,7.82-.08,10.94,0-30.33,70.5,0,0-30.38,70.47-1.66,2.52-3.39,3-4.25,3H414c5-10.93,5-10.9,10.33-21.87-10.22-23.27-10.3-23.7-22.48-51.64m-90.53,9.11c-8.36,0-14,4.8-14,18.23,0,13.14,5.61,18.22,14,18.22,9.11,0,13.37-4.86,13.37-18.22s-4.26-18.23-13.37-18.23m50.55,7.9v23.81c3.27,3.93,5.6,5.35,10.81,5.35,8,0,13.37-5.6,13.37-18.23,0-11-1.93-18.83-11.54-18.83-4.56,0-9.49,2.68-12.64,7.9" transform="translate(-75)" style="fill:#231815;fill-rule:evenodd"/></g></g><g id="bf87e4e7-395e-476e-a16f-b0f14943607a" data-name="椭圆 5" style="opacity:0.51"><path d="M300,45V0C175.74,0,75,100.74,75,225S175.74,450,300,450V405a180,180,0,0,1,0-360Z" transform="translate(-75)" style="fill:#73f4db"/></g><g id="a2f5831a-99b7-4554-a719-28b5a0a6e551" data-name="椭圆 4" style="opacity:0.8200000000000001"><path d="M300,81V44.25a180.75,180.75,0,0,0,0,361.5V369a144,144,0,0,1,0-288Z" transform="translate(-75)" style="fill:#73f4db"/></g><g id="b385c40a-a799-4fe3-8127-ce54fca01d22" data-name="椭圆 3" style="opacity:0.96"><path d="M185.25,225A114.76,114.76,0,0,1,299.91,110.25v-30a144.84,144.84,0,0,0,0,289.68V339.75A114.76,114.76,0,0,1,185.25,225ZM299.91,110.25v229.5H300V110.25Z" transform="translate(-75)" style="fill:#73f4db"/></g><g id="a18841fb-e314-4fff-85ef-a48600088f06" data-name="椭圆 2"><path d="M300,133.5v-24a115.5,115.5,0,0,0,0,231v-24a91.5,91.5,0,0,1,0-183Z" transform="translate(-75)" style="fill:#73f4db"/></g><g id="a3969d39-eea6-44a4-b59e-581d8f1fa1d1" data-name="椭圆 1"><path d="M300.31,179.31V132.42a92.27,92.27,0,0,0,0,184.54V270.07a45.38,45.38,0,0,1,0-90.76Z" transform="translate(-75)" style="fill:#b7f8eb"/></g><g id="bfd0f65f-94bd-4c77-8f89-e78d6ef2951b" data-name="椭圆 1 拷贝"><path d="M254.15,225.05a45.81,45.81,0,0,0,45.8,45.8v-91.6A45.8,45.8,0,0,0,254.15,225.05Z" transform="translate(-75)" style="fill:#dafaf4"/></g><g id="bd6750e9-07f6-461e-8f1a-27febabb906c" data-name="椭圆 5 拷贝" style="opacity:0.51"><path d="M300,0V45a180,180,0,0,1,0,360v45c124.26,0,225-100.74,225-225S424.26,0,300,0Z" transform="translate(-75)" style="fill:#2cc1c8"/></g><g id="f09f66c1-185d-4f44-b9fa-35c222404de4" data-name="椭圆 4 拷贝" style="opacity:0.8200000000000001"><path d="M300,44.25V81a144,144,0,0,1,0,288v36.75a180.75,180.75,0,0,0,0-361.5Z" transform="translate(-75)" style="fill:#2cc1c8"/></g><g id="a8f00a39-ea2f-4314-8f97-d69e1278971e" data-name="椭圆 3 拷贝" style="opacity:0.96"><path d="M299.91,80.25V369.93a144.84,144.84,0,0,0,0-289.68Zm.09,259.5V110.25a114.75,114.75,0,0,1,0,229.5Z" transform="translate(-75)" style="fill:#2cc1c8"/></g><g id="f112e463-700e-4b44-b347-95ad392b4d33" data-name="椭圆 2 拷贝"><path d="M300,109.5v24a91.5,91.5,0,0,1,0,183v24a115.5,115.5,0,0,0,0-231Z" transform="translate(-75)" style="fill:#2cc1c8"/></g><g id="e98c4b4e-ec45-4d06-8867-652f184fb780" data-name="椭圆 1 拷贝 2"><path d="M300.31,132.42v46.89a45.38,45.38,0,0,1,0,90.76V317a92.27,92.27,0,0,0,0-184.54Z" transform="translate(-75)" style="fill:#94e0e3"/></g><g id="aec314fd-1c6c-40cd-a3c0-4952b90ee2ad" data-name="椭圆 1 拷贝 2"><path d="M300,179.25v91.6a45.8,45.8,0,0,0,0-91.6Z" transform="translate(-75)" style="fill:#c8eff0"/></g></g></svg>