<svg id="f1dfddc3-4b20-4c76-a1b3-e605d95afcad" data-name="1" xmlns="http://www.w3.org/2000/svg" viewBox="0 0 719 163.89"><path id="afeea68a-4b4f-429d-9dfe-ea94f0e5b438" data-name="3" d="M712.12,68.41c-1.11,2.27-2,11.69-2,13.39h56v91h-21v-75h-35v75h-21v-74c-9.47,0-14-3.51-14-8v-9h14v-6C691,44.74,723.65,35.66,746,41.24a2.25,2.25,0,0,1,2.05,2.56v8C746.67,61.88,722.62,46.75,712.12,68.41ZM47.08,43.8h81v19h-57v36h45v18h-45v37h57v19h-81Zm229,9v29h24v16h-24v50c0,6.13,4.24,7.91,8.61,7.83a13.25,13.25,0,0,0,9.39-3.83c8,14,0,.13,8,14-4.74,6.28-14.84,8-23,8-21.36,0-25-17.76-25-29v-47h-8c-3.14,0-5-.71-5-4v-9c15-3,0,0,15-3,2.23-16.07,3.29-29,8-29Zm99,29c-2.59,17.8,0,0-2.6,17.81-.32,2.26-1.73,2.68-3.4,2.19-12.22-3.9-30.09.64-30,20,0,8.41,0,23.18,0,51.1-7,0-14-.1-21-.1v-92c6.1-.23,10.69,0,14,0,4.68,0,6,7.32,6,17C346.84,85,359.62,74.39,375.08,81.8Zm55-2c22,0,45,15,45,47,0,33.78-23,47-45,47-23,0-45-13.3-45-47C385.08,94.8,407.08,79.8,430.08,79.8Zm-282,1h13c5.06,0,7,5.12,7,12,12.64-13.15,22.7-12,32-12,17.54,0,27.09,17,27.09,28.18,0,18.64-.09,43.32-.09,63.82h-21v-61c0-9.35-6.93-15.08-15.43-15.13s-21.57,4.63-21.57,16.13v60h-21ZM513.25,203.58h-21c0-40.38-.18-81.4-.18-121.78h14c4.92,0,6,7.31,6,12,6.39-5.85,13.37-13,30-13,17.64,0,33,11.65,33,46,0,17.89-7.54,47-38,47-11,0-20.14-3.18-24-9.7C513.08,176.45,513.25,191.23,513.25,203.58ZM579.08,81.8h21c3.94.11,7.36,11.14,27,62,.41-1.1,13.17-37.2,19-51,2.7-6.39,2.76-11,8-11,5.74,0,12.86-.13,18,0-49.92,116.05,0-.06-50,116-2.73,4.15-5.59,5-7,5h-16c8.26-18,8.25-17.94,17-36C599.27,128.5,599.14,127.8,579.08,81.8Zm-149,15c-13.75,0-23,7.91-23,30,0,21.64,9.25,30,23,30,15,0,22-8,22-30S445.08,96.8,430.08,96.8Zm83.2,13V149c5.38,6.47,9.22,8.8,17.8,8.8,13.09,0,22-9.21,22-30,0-18.12-3.17-31-19-31C526.58,96.8,518.46,101.21,513.28,109.8Z" transform="translate(-47.08 -39.7)" style="fill:#231815;fill-rule:evenodd"/></svg>